<?xml version="1.0" encoding="UTF-8"?>
<svg width="74px" height="74px" viewBox="0 0 74 74" version="1.1" xmlns="http://www.w3.org/2000/svg" xmlns:xlink="http://www.w3.org/1999/xlink">
    <!-- Generator: Sketch 59 (86127) - https://sketch.com -->
    <title>编组 6</title>
    <desc>Created with Sketch.</desc>
    <g id="页面-1" stroke="none" stroke-width="1" fill="none" fill-rule="evenodd">
        <g id="产品端" transform="translate(-5528.000000, -267.000000)">
            <g id="设计图备份-3" transform="translate(4876.000000, 111.000000)">
                <g id="编组-7" transform="translate(0.000000, 138.000000)">
                    <g id="编组-6" transform="translate(652.000000, 18.000000)">
                        <rect id="矩形" fill="#FFFFFF" opacity="0" x="0" y="0" width="74" height="74"></rect>
                        <path d="M47.1917296,21.2275582 C48.2474606,20.775235 49.4685015,21.0094608 50.2872574,21.8213567 C57.5975438,28.3594968 59.1363036,39.298309 53.9191352,47.6398302 C48.7019669,55.9813514 38.2714409,59.2592275 29.3003508,55.3764799 C24.4222645,53.5297673 20.5367373,49.6929738 18.5939045,44.8043178 C15.2541482,36.842736 17.2724414,27.6146212 23.6205384,21.8213567 C24.4490155,21.0221165 25.6708658,20.804243 26.7195471,21.2687588 C27.7682285,21.7332747 28.4386604,22.789339 28.4199799,23.9472806 C28.3924143,24.7950197 28.0229738,25.5943841 27.3976137,26.1593906 C24.4554717,28.8600164 22.7662718,32.6839933 22.7401675,36.702824 C22.738968,41.1514417 24.7753658,45.3495855 28.2543662,48.0706417 C31.7333666,50.7916979 36.2623287,51.7285673 40.5179802,50.6075154 C45.6747543,49.3123219 49.659069,45.1704181 50.7984405,39.9204386 C51.9302181,34.8637456 50.2804443,29.5824815 46.4817831,26.1019332 C45.8327507,25.5550637 45.4580452,24.7443074 45.4594169,23.8898232 C45.4526822,22.7300204 46.1359985,21.6798814 47.1917296,21.2275582 Z M37,17 C38.656717,17 39.9998058,18.268349 40,19.8330566 L40,19.8330566 L40,31.1666113 C40,32.7314487 38.6568542,34 37,34 C35.3431458,34 34,32.7314487 34,31.1666113 L34,31.1666113 L34,19.8330566 C34.0001942,18.268349 35.343283,17 37,17 Z" id="形状结合" fill="#ED6961" fill-rule="nonzero"></path>
                    </g>
                </g>
            </g>
        </g>
    </g>
</svg>