<?xml version="1.0" encoding="UTF-8"?>
<svg width="36px" height="36px" viewBox="0 0 36 36" version="1.1" xmlns="http://www.w3.org/2000/svg" xmlns:xlink="http://www.w3.org/1999/xlink">
    <!-- Generator: Sketch 59 (86127) - https://sketch.com -->
    <title>1107加载中</title>
    <desc>Created with Sketch.</desc>
    <g id="页面-1" stroke="none" stroke-width="1" fill="none" fill-rule="evenodd">
        <g id="下拉加载更多会话内容" transform="translate(-562.000000, -598.000000)" fill-rule="nonzero">
            <g id="设计图备份-7" transform="translate(205.000000, 114.000000)">
                <g id="编组-7" transform="translate(0.000000, 348.000000)">
                    <g id="编组-15">
                        <g id="1107加载中" transform="translate(355.000000, 134.000000)">
                            <rect id="矩形" fill="#000000" opacity="0" x="0" y="0" width="40" height="40"></rect>
                            <path d="M15.9960937,37.0742188 C15.7851563,37.0742188 15.5742187,37.046875 15.3632812,36.9882813 C7.71484375,34.90625 2.375,27.9179688 2.375,20 C2.375,12.0820312 7.71484375,5.09375 15.3632812,3.01171875 C16.6367188,2.66015625 17.9648438,3.41796875 18.3125,4.69921875 C18.6601562,5.98046875 17.90625,7.30078125 16.625,7.6484375 C11.0664062,9.1640625 7.18359375,14.2421875 7.18359375,20 C7.18359375,25.7578125 11.0664062,30.8359375 16.6289062,32.3515625 C17.9101563,32.6992188 18.6640625,34.0195313 18.3164062,35.3007813 C18.0234375,36.3710938 17.0546875,37.0742188 15.9960938,37.0742188 L15.9960937,37.0742188 Z M24.0039062,37.0742188 C22.9453125,37.0742188 21.9765625,36.3710938 21.6875,35.3046875 C21.3398438,34.0234375 22.09375,32.703125 23.375,32.3554688 C28.9335938,30.8359375 32.8164062,25.7578125 32.8164062,20 C32.8164062,14.2421875 28.9335938,9.1640625 23.3710937,7.6484375 C22.0898437,7.30078125 21.3359375,5.9765625 21.6835937,4.69921875 C22.03125,3.421875 23.359375,2.66015625 24.6328125,3.01171875 C32.2851562,5.09375 37.625,12.0820312 37.625,20 C37.625,27.9179688 32.2851562,34.90625 24.6367188,36.9882813 C24.4257812,37.046875 24.2148438,37.0742188 24.0039062,37.0742188 Z" id="形状" fill="#ED6961"></path>
                        </g>
                    </g>
                </g>
            </g>
        </g>
    </g>
</svg>