<?xml version="1.0" encoding="UTF-8"?>
<svg width="32px" height="32px" viewBox="0 0 32 32" version="1.1" xmlns="http://www.w3.org/2000/svg" xmlns:xlink="http://www.w3.org/1999/xlink">
    <!-- Generator: Sketch 59 (86127) - https://sketch.com -->
    <title>形状</title>
    <desc>Created with Sketch.</desc>
    <g id="页面-1" stroke="none" stroke-width="1" fill="none" fill-rule="evenodd">
        <g id="产品端" transform="translate(-3604.000000, -1305.000000)" fill="#F5BB16" fill-rule="nonzero">
            <g id="设计图" transform="translate(3340.000000, 111.000000)">
                <g id="编组-7" transform="translate(0.000000, 348.000000)">
                    <g id="下载失败" transform="translate(262.000000, 844.000000)">
                        <path d="M18,2 C9.2,2 2,9.2 2,18 C2,26.8 9.2,34 18,34 C26.8,34 34,26.8 34,18 C34,9.2 26.8,2 18,2 Z M18,26.5714286 C17.0857143,26.5714286 16.2857143,25.7714286 16.2857143,24.8571429 C16.2857143,23.9428571 17.0857143,23.1428571 18,23.1428571 C18.9142857,23.1428571 19.7142857,23.9428571 19.7142857,24.8571429 C19.7142857,25.7714286 18.9142857,26.5714286 18,26.5714286 Z M19.4857143,19.9428571 C19.4857143,21.0857143 19.0285714,22 18,22 C16.9714286,22 16.5142857,21.0857143 16.5142857,19.9428571 L15.9428571,11.4857143 C15.9428571,10.3428571 16.8571429,9.42857143 17.8857143,9.42857143 C18.9142857,9.42857143 19.9428571,10.3428571 19.9428571,11.4857143 L19.4857143,19.9428571 Z" id="形状"></path>
                    </g>
                </g>
            </g>
        </g>
    </g>
</svg>